<svg width="1000" height="1000" viewBox="0 0 1000 1000" xmlns="http://www.w3.org/2000/svg"><defs/><path fill="#02aee7" transform="matrix(0.688220866001591 0 0 0.688220866001591 3.636124577683276 88.54980054451082)" d="M 319.30741704154 610.69615634502 L 319.30741704154 466.19615634502 L 420.10741704154 466.19615634502 C 430.20741704154 457.59615634502 440.40741704154 450.29615634502 450.80741704154 444.49615634502 C 452.20741704154 443.59615634502 453.60741704154 442.79615634502 455.00741704154 441.99615634502 L 295.00741704154 441.99615634502 L 295.00741704154 651.29615634502 C 302.80741704154 639.39615634502 310.90741704154 625.89615634502 319.30741704154 610.69615634502 Z"/><path fill="#02aee7" transform="matrix(0.688220866001591 0 0 0.688220866001591 3.636124577683276 88.54980054451082)" d="M 582.70741704154 584.89615634502 L 582.70741704154 729.49615634502 L 481.80741704154 729.49615634502 C 471.70741704154 738.09615634502 461.50741704154 745.39615634502 451.10741704154 751.19615634502 C 449.70741704154 752.09615634502 448.30741704154 752.89615634502 446.80741704154 753.69615634502 L 606.80741704154 753.69615634502 L 606.80741704154 544.39615634502 C 599.20741704154 556.29615634502 591.10741704154 569.69615634502 582.70741704154 584.89615634502 Z"/><path fill="#1f4985" transform="matrix(0.688220866001591 0 0 0.688220866001591 3.636124577683276 88.54980054451082)" d="M 689.20741704154 440.79615634502 C 690.40741704154 441.99615634502 655.10741704154 442.19615634502 619.40741704154 463.99615634502 C 582.60741704154 484.49615634502 545.40741704154 526.69615634502 515.60741704154 584.49615634502 C 485.80741704154 642.29615634502 456.00741704154 691.89615634502 426.70741704154 719.99615634502 C 398.50741704154 749.29615634502 370.70741704154 756.99615634502 371.90741704154 758.19615634502 C 370.70741704154 756.99615634502 406.00741704154 756.79615634502 441.70741704154 734.99615634502 C 478.50741704154 714.39615634502 515.80741704154 672.29615634502 545.60741704154 614.49615634502 C 575.40741704154 556.69615634502 605.20741704154 507.09615634502 634.50741704154 478.99615634502 C 662.60741704154 449.69615634502 690.40741704154 441.89615634502 689.20741704154 440.79615634502 Z"/><path fill="#1f4985" transform="matrix(0.688220866001591 0 0 0.688220866001591 3.636124577683276 88.54980054451082)" d="M 466.00741704154 612.79615634502 C 495.80741704154 554.99615634502 525.60741704154 505.39615634502 554.90741704154 477.29615634502 C 583.10741704154 447.99615634502 610.90741704154 440.29615634502 609.70741704154 439.09615634502 C 610.90741704154 440.29615634502 575.60741704154 440.49615634502 539.90741704154 462.29615634502 C 503.10741704154 482.89615634502 465.80741704154 524.99615634502 436.00741704154 582.79615634502 C 406.20741704154 640.59615634502 376.40741704154 690.19615634502 347.10741704154 718.29615634502 C 318.90741704154 747.59615634502 291.10741704154 755.29615634502 292.30741704154 756.49615634502 C 291.10741704154 755.29615634502 326.40741704154 755.09615634502 362.10741704154 733.29615634502 C 398.90741704154 712.69615634502 436.10741704154 670.59615634502 466.00741704154 612.79615634502 Z"/><path fill="#1f4985" transform="matrix(0.688220866001591 0 0 0.688220866001591 3.636124577683276 88.54980054451082)" d="M 386.40741704154 611.19615634502 C 416.20741704154 553.39615634502 446.00741704154 503.79615634502 475.30741704154 475.69615634502 C 503.50741704154 446.39615634502 531.30741704154 438.69615634502 530.10741704154 437.49615634502 C 531.30741704154 438.69615634502 496.00741704154 438.89615634502 460.30741704154 460.69615634502 C 423.50741704154 481.29615634502 386.20741704154 523.39615634502 356.40741704154 581.19615634502 C 326.60741704154 638.99615634502 296.80741704154 688.59615634502 267.50741704154 716.69615634502 C 239.30741704154 745.99615634502 211.50741704154 753.69615634502 212.70741704154 754.89615634502 C 211.50741704154 753.69615634502 246.80741704154 753.49615634502 282.50741704154 731.69615634502 C 319.40741704154 711.09615634502 356.60741704154 668.99615634502 386.40741704154 611.19615634502 Z"/><path id="text" fill="#1f4985" transform="matrix(1.5105701908584528 0 0 1.5105701908584528 379.28872113596117 127.70119115013097)" d="M 97.3396561234 278.19043590858 L 97.3396561234 215.79043590858 C 97.3396561234 214.51043590858 97.9476561234 213.55043590858 99.1636561234 212.91043590858 C 100.3796561234 212.27043590858 101.8516561234 211.95043590858 103.5796561234 211.95043590858 C 105.3076561234 211.95043590858 106.7796561234 212.27043590858 107.9956561234 212.91043590858 C 109.2116561234 213.55043590858 109.8196561234 214.51043590858 109.8196561234 215.79043590858 L 109.8196561234 240.84643590858 L 131.4196561234 240.84643590858 L 131.4196561234 215.79043590858 C 131.4196561234 214.51043590858 132.0276561234 213.55043590858 133.2436561234 212.91043590858 C 134.4596561234 212.27043590858 135.9316561234 211.95043590858 137.6596561234 211.95043590858 C 139.3876561234 211.95043590858 140.8596561234 212.27043590858 142.0756561234 212.91043590858 C 143.2916561234 213.55043590858 143.8996561234 214.51043590858 143.8996561234 215.79043590858 L 143.8996561234 278.19043590858 C 143.8996561234 279.40643590858 143.2756561234 280.36643590858 142.0276561234 281.07043590858 C 140.7796561234 281.77443590858 139.3236561234 282.12643590858 137.6596561234 282.12643590858 C 135.9316561234 282.12643590858 134.4596561234 281.77443590858 133.2436561234 281.07043590858 C 132.0276561234 280.36643590858 131.4196561234 279.40643590858 131.4196561234 278.19043590858 L 131.4196561234 250.63843590858 L 109.8196561234 250.63843590858 L 109.8196561234 278.19043590858 C 109.8196561234 279.40643590858 109.1956561234 280.36643590858 107.9476561234 281.07043590858 C 106.6996561234 281.77443590858 105.2436561234 282.12643590858 103.5796561234 282.12643590858 C 101.8516561234 282.12643590858 100.3796561234 281.77443590858 99.1636561234 281.07043590858 C 97.9476561234 280.36643590858 97.3396561234 279.40643590858 97.3396561234 278.19043590858 Z M 152.2516561234 263.31043590858 L 152.2516561234 255.15043590858 C 152.2516561234 249.90243590858 154.2996561234 245.39043590858 158.3956561234 241.61443590858 C 162.4916561234 237.83843590858 167.4516561234 235.95043590858 173.2756561234 235.95043590858 C 178.7156561234 235.95043590858 183.3716561234 237.66243590858 187.2436561234 241.08643590858 C 191.1156561234 244.51043590858 193.0516561234 248.81443590858 193.0516561234 253.99843590858 C 193.0516561234 255.91843590858 192.8116561234 257.50243590858 192.3316561234 258.75043590858 C 191.8516561234 259.99843590858 191.1156561234 260.87843590858 190.1236561234 261.39043590858 C 189.1316561234 261.90243590858 188.2196561234 262.22243590858 187.3876561234 262.35043590858 C 186.5556561234 262.47843590858 185.4676561234 262.54243590858 184.1236561234 262.54243590858 L 164.6356561234 262.54243590858 L 164.6356561234 263.98243590858 C 164.6356561234 266.73443590858 165.6596561234 268.95843590858 167.7076561234 270.65443590858 C 169.7556561234 272.35043590858 172.4756561234 273.19843590858 175.8676561234 273.19843590858 C 178.2996561234 273.19843590858 180.6996561234 272.59043590858 183.0676561234 271.37443590858 C 185.4356561234 270.15843590858 186.9716561234 269.55043590858 187.6756561234 269.55043590858 C 189.0196561234 269.55043590858 190.1396561234 270.17443590858 191.0356561234 271.42243590858 C 191.9316561234 272.67043590858 192.3796561234 273.87043590858 192.3796561234 275.02243590858 C 192.3796561234 276.81443590858 190.7636561234 278.59043590858 187.5316561234 280.35043590858 C 184.2996561234 282.11043590858 180.2836561234 282.99043590858 175.4836561234 282.99043590858 C 168.6356561234 282.99043590858 163.0516561234 281.18243590858 158.7316561234 277.56643590858 C 154.4116561234 273.95043590858 152.2516561234 269.19843590858 152.2516561234 263.31043590858 Z M 164.6356561234 255.24643590858 L 178.6516561234 255.24643590858 C 179.6756561234 255.24643590858 180.3956561234 255.07043590858 180.8116561234 254.71843590858 C 181.2276561234 254.36643590858 181.4356561234 253.67843590858 181.4356561234 252.65443590858 C 181.4356561234 250.41443590858 180.6196561234 248.59043590858 178.9876561234 247.18243590858 C 177.3556561234 245.77443590858 175.3556561234 245.07043590858 172.9876561234 245.07043590858 C 170.7476561234 245.07043590858 168.7956561234 245.75843590858 167.1316561234 247.13443590858 C 165.4676561234 248.51043590858 164.6356561234 250.31843590858 164.6356561234 252.55843590858 L 164.6356561234 255.24643590858 Z M 200.4436561234 278.19043590858 L 200.4436561234 240.36643590858 C 200.4436561234 239.21443590858 201.0036561234 238.28643590858 202.1236561234 237.58243590858 C 203.2436561234 236.87843590858 204.6996561234 236.52643590858 206.4916561234 236.52643590858 C 208.0916561234 236.52643590858 209.4196561234 236.87843590858 210.4756561234 237.58243590858 C 211.5316561234 238.28643590858 212.0596561234 239.21443590858 212.0596561234 240.36643590858 L 212.0596561234 244.30243590858 C 213.0836561234 242.06243590858 214.6836561234 240.11043590858 216.8596561234 238.44643590858 C 219.0356561234 236.78243590858 221.3716561234 235.95043590858 223.8676561234 235.95043590858 L 226.8436561234 235.95043590858 C 227.9956561234 235.95043590858 229.0356561234 236.49443590858 229.9636561234 237.58243590858 C 230.8916561234 238.67043590858 231.3556561234 239.91843590858 231.3556561234 241.32643590858 C 231.3556561234 242.79843590858 230.8916561234 244.07843590858 229.9636561234 245.16643590858 C 229.0356561234 246.25443590858 227.9956561234 246.79843590858 226.8436561234 246.79843590858 L 223.8676561234 246.79843590858 C 220.9236561234 246.79843590858 218.3476561234 248.11043590858 216.1396561234 250.73443590858 C 213.9316561234 253.35843590858 212.8276561234 256.78243590858 212.8276561234 261.00643590858 L 212.8276561234 278.19043590858 C 212.8276561234 279.15043590858 212.1876561234 280.04643590858 210.9076561234 280.87843590858 C 209.6276561234 281.71043590858 208.1556561234 282.12643590858 206.4916561234 282.12643590858 C 204.7636561234 282.12643590858 203.3236561234 281.72643590858 202.1716561234 280.92643590858 C 201.0196561234 280.12643590858 200.4436561234 279.21443590858 200.4436561234 278.19043590858 Z M 234.0436561234 274.73443590858 C 234.0436561234 273.58243590858 234.4596561234 272.38243590858 235.2916561234 271.13443590858 C 236.1236561234 269.88643590858 237.0836561234 269.26243590858 238.1716561234 269.26243590858 C 238.8756561234 269.26243590858 239.7556561234 269.61443590858 240.8116561234 270.31843590858 C 241.8676561234 271.02243590858 243.2596561234 271.74243590858 244.9876561234 272.47843590858 C 246.7156561234 273.21443590858 248.7636561234 273.58243590858 251.1316561234 273.58243590858 C 255.8036561234 273.58243590858 258.1396561234 272.20643590858 258.1396561234 269.45443590858 C 258.1396561234 267.91843590858 257.3556561234 266.70243590858 255.7876561234 265.80643590858 C 254.2196561234 264.91043590858 252.3316561234 264.17443590858 250.1236561234 263.59843590858 C 247.9156561234 263.02243590858 245.6916561234 262.33443590858 243.4516561234 261.53443590858 C 241.2116561234 260.73443590858 239.3076561234 259.39043590858 237.7396561234 257.50243590858 C 236.1716561234 255.61443590858 235.3876561234 253.19843590858 235.3876561234 250.25443590858 C 235.3876561234 246.35043590858 236.7636561234 242.99043590858 239.5156561234 240.17443590858 C 242.2676561234 237.35843590858 246.6196561234 235.95043590858 252.5716561234 235.95043590858 C 256.5396561234 235.95043590858 260.0756561234 236.55843590858 263.1796561234 237.77443590858 C 266.2836561234 238.99043590858 267.8356561234 240.46243590858 267.8356561234 242.19043590858 C 267.8356561234 243.27843590858 267.4036561234 244.54243590858 266.5396561234 245.98243590858 C 265.6756561234 247.42243590858 264.6036561234 248.14243590858 263.3236561234 248.14243590858 C 262.8116561234 248.14243590858 261.4196561234 247.67843590858 259.1476561234 246.75043590858 C 256.8756561234 245.82243590858 254.7476561234 245.35843590858 252.7636561234 245.35843590858 C 250.5876561234 245.35843590858 248.9236561234 245.80643590858 247.7716561234 246.70243590858 C 246.6196561234 247.59843590858 246.0436561234 248.59043590858 246.0436561234 249.67843590858 C 246.0436561234 250.76643590858 246.6196561234 251.66243590858 247.7716561234 252.36643590858 C 248.9236561234 253.07043590858 250.3476561234 253.61443590858 252.0436561234 253.99843590858 C 253.7396561234 254.38243590858 255.5796561234 254.91043590858 257.5636561234 255.58243590858 C 259.5476561234 256.25443590858 261.3876561234 257.03843590858 263.0836561234 257.93443590858 C 264.7796561234 258.83043590858 266.2036561234 260.22243590858 267.3556561234 262.11043590858 C 268.5076561234 263.99843590858 269.0836561234 266.28643590858 269.0836561234 268.97443590858 C 269.0836561234 273.32643590858 267.5316561234 276.75043590858 264.4276561234 279.24643590858 C 261.3236561234 281.74243590858 256.9876561234 282.99043590858 251.4196561234 282.99043590858 C 246.6196561234 282.99043590858 242.5236561234 282.15843590858 239.1316561234 280.49443590858 C 235.7396561234 278.83043590858 234.0436561234 276.91043590858 234.0436561234 274.73443590858 Z M 275.7076561234 220.30243590858 C 275.7076561234 218.63843590858 276.3636561234 217.21443590858 277.6756561234 216.03043590858 C 278.9876561234 214.84643590858 280.6036561234 214.25443590858 282.5236561234 214.25443590858 C 284.3796561234 214.25443590858 285.9636561234 214.84643590858 287.2756561234 216.03043590858 C 288.5876561234 217.21443590858 289.2436561234 218.63843590858 289.2436561234 220.30243590858 C 289.2436561234 221.90243590858 288.5876561234 223.31043590858 287.2756561234 224.52643590858 C 285.9636561234 225.74243590858 284.3796561234 226.35043590858 282.5236561234 226.35043590858 C 280.6036561234 226.35043590858 278.9876561234 225.74243590858 277.6756561234 224.52643590858 C 276.3636561234 223.31043590858 275.7076561234 221.90243590858 275.7076561234 220.30243590858 Z M 276.3796561234 278.19043590858 L 276.3796561234 240.36643590858 C 276.3796561234 239.21443590858 276.9556561234 238.28643590858 278.1076561234 237.58243590858 C 279.2596561234 236.87843590858 280.7316561234 236.52643590858 282.5236561234 236.52643590858 C 284.3156561234 236.52643590858 285.8036561234 236.87843590858 286.9876561234 237.58243590858 C 288.1716561234 238.28643590858 288.7636561234 239.21443590858 288.7636561234 240.36643590858 L 288.7636561234 278.19043590858 C 288.7636561234 279.15043590858 288.1396561234 280.04643590858 286.8916561234 280.87843590858 C 285.6436561234 281.71043590858 284.1876561234 282.12643590858 282.5236561234 282.12643590858 C 280.7956561234 282.12643590858 279.3396561234 281.72643590858 278.1556561234 280.92643590858 C 276.9716561234 280.12643590858 276.3796561234 279.21443590858 276.3796561234 278.19043590858 Z M 299.2276561234 278.19043590858 L 299.2276561234 213.77443590858 C 299.2276561234 212.62243590858 299.7876561234 211.69443590858 300.9076561234 210.99043590858 C 302.0276561234 210.28643590858 303.5156561234 209.93443590858 305.3716561234 209.93443590858 C 307.0996561234 209.93443590858 308.5716561234 210.28643590858 309.7876561234 210.99043590858 C 311.0036561234 211.69443590858 311.6116561234 212.62243590858 311.6116561234 213.77443590858 L 311.6116561234 278.19043590858 C 311.6116561234 279.15043590858 310.9876561234 280.04643590858 309.7396561234 280.87843590858 C 308.4916561234 281.71043590858 307.0356561234 282.12643590858 305.3716561234 282.12643590858 C 303.6436561234 282.12643590858 302.1876561234 281.72643590858 301.0036561234 280.92643590858 C 299.8196561234 280.12643590858 299.2276561234 279.21443590858 299.2276561234 278.19043590858 Z"/></svg>